<?xml version="1.0" encoding="UTF-8" standalone="no"?>
<!DOCTYPE svg PUBLIC "-//W3C//DTD SVG 1.1//EN" "http://www.w3.org/Graphics/SVG/1.1/DTD/svg11.dtd">
<svg width="100%" height="100%" viewBox="0 0 241 231" version="1.1" xmlns="http://www.w3.org/2000/svg" xmlns:xlink="http://www.w3.org/1999/xlink" xml:space="preserve" xmlns:serif="http://www.serif.com/" style="fill-rule:evenodd;clip-rule:evenodd;stroke-linejoin:round;stroke-miterlimit:2;">
    <g transform="matrix(1,0,0,1,-95,-691)">
        <g id="G-favicon">
            <g transform="matrix(1.00995,0,0,1.00995,-3.16418,-9.01493)">
                <path d="M318,755.25L318,855.75C318,883.484 295.484,906 267.75,906L167.25,906C139.516,906 117,883.484 117,855.75L117,755.25C117,727.516 139.516,705 167.25,705L267.75,705C295.484,705 318,727.516 318,755.25Z" style="fill:rgb(251,247,239);"/>
            </g>
            <g id="G" transform="matrix(1,0,0,1,-2.75985,13.1618)">
                <g transform="matrix(0.349228,0,0,0.349228,27.3636,557.016)">
                    <g transform="matrix(632.409,0,0,632.409,275,892)">
                        <path d="M0.623,-0.001C0.623,0.004 0.623,0.007 0.622,0.009C0.621,0.01 0.62,0.011 0.618,0.011C0.614,0.011 0.608,0.008 0.598,0.003C0.588,-0.002 0.577,-0.008 0.565,-0.015C0.552,-0.022 0.54,-0.028 0.529,-0.033C0.518,-0.039 0.508,-0.041 0.502,-0.041C0.498,-0.041 0.493,-0.039 0.485,-0.033C0.478,-0.028 0.468,-0.022 0.455,-0.016C0.443,-0.009 0.428,-0.003 0.411,0.002C0.394,0.007 0.374,0.01 0.351,0.01C0.303,0.01 0.259,0.002 0.22,-0.015C0.18,-0.032 0.146,-0.056 0.118,-0.086C0.089,-0.117 0.067,-0.153 0.051,-0.195C0.036,-0.237 0.028,-0.283 0.028,-0.334C0.028,-0.39 0.036,-0.441 0.053,-0.487C0.07,-0.534 0.094,-0.573 0.125,-0.606C0.156,-0.64 0.193,-0.665 0.236,-0.683C0.278,-0.701 0.326,-0.71 0.378,-0.71C0.406,-0.71 0.429,-0.706 0.448,-0.699C0.467,-0.692 0.482,-0.684 0.493,-0.677C0.503,-0.669 0.51,-0.666 0.513,-0.666C0.519,-0.666 0.527,-0.669 0.537,-0.677C0.547,-0.684 0.557,-0.691 0.567,-0.699C0.576,-0.706 0.583,-0.71 0.587,-0.71C0.588,-0.71 0.589,-0.709 0.59,-0.708C0.59,-0.707 0.591,-0.705 0.592,-0.701L0.628,-0.486C0.629,-0.484 0.629,-0.482 0.629,-0.481C0.628,-0.48 0.628,-0.479 0.627,-0.479C0.626,-0.478 0.626,-0.478 0.625,-0.479C0.624,-0.479 0.623,-0.48 0.621,-0.482C0.601,-0.535 0.578,-0.577 0.552,-0.609C0.527,-0.641 0.5,-0.665 0.471,-0.68C0.442,-0.694 0.412,-0.702 0.38,-0.702C0.339,-0.702 0.303,-0.689 0.272,-0.663C0.241,-0.638 0.217,-0.6 0.199,-0.549C0.181,-0.499 0.172,-0.436 0.172,-0.36C0.172,-0.286 0.182,-0.224 0.202,-0.171C0.221,-0.119 0.247,-0.079 0.28,-0.051C0.313,-0.024 0.348,-0.01 0.388,-0.01C0.398,-0.01 0.41,-0.011 0.422,-0.015C0.435,-0.018 0.447,-0.023 0.458,-0.029C0.468,-0.036 0.477,-0.044 0.484,-0.053C0.491,-0.062 0.495,-0.071 0.495,-0.082L0.495,-0.277C0.495,-0.281 0.493,-0.284 0.49,-0.286C0.487,-0.289 0.482,-0.29 0.476,-0.291L0.417,-0.297C0.415,-0.297 0.413,-0.298 0.412,-0.299C0.412,-0.299 0.411,-0.3 0.411,-0.301C0.411,-0.302 0.412,-0.302 0.412,-0.303C0.413,-0.304 0.414,-0.304 0.416,-0.304L0.668,-0.304C0.669,-0.304 0.671,-0.304 0.671,-0.303C0.672,-0.302 0.673,-0.302 0.673,-0.301C0.673,-0.3 0.672,-0.299 0.671,-0.299C0.67,-0.298 0.669,-0.298 0.667,-0.297L0.636,-0.291C0.632,-0.29 0.628,-0.288 0.626,-0.286C0.624,-0.284 0.623,-0.281 0.623,-0.277L0.623,-0.001Z" style="fill:rgb(23,54,92);fill-rule:nonzero;"/>
                    </g>
                </g>
                <g transform="matrix(0.349228,0,0,0.349228,7.26683,609.749)">
                    <path d="M805,645.25L805,671.75C805,679.063 799.063,685 791.75,685L765.25,685C757.937,685 752,679.063 752,671.75L752,645.25C752,637.937 757.937,632 765.25,632L791.75,632C799.063,632 805,637.937 805,645.25Z" style="fill:rgb(232,136,68);"/>
                </g>
                <g transform="matrix(0.349228,0,0,0.349228,27.8713,609.749)">
                    <path d="M805,645.25L805,671.75C805,679.063 799.063,685 791.75,685L765.25,685C757.937,685 752,679.063 752,671.75L752,645.25C752,637.937 757.937,632 765.25,632L791.75,632C799.063,632 805,637.937 805,645.25Z" style="fill:rgb(243,185,138);"/>
                </g>
                <g transform="matrix(0.349228,0,0,0.349228,7.26683,630.353)">
                    <path d="M805,645.25L805,671.75C805,679.063 799.063,685 791.75,685L765.25,685C757.937,685 752,679.063 752,671.75L752,645.25C752,637.937 757.937,632 765.25,632L791.75,632C799.063,632 805,637.937 805,645.25Z" style="fill:rgb(232,136,68);"/>
                </g>
                <g transform="matrix(0.349228,0,0,0.349228,27.8713,630.353)">
                    <path d="M805,645.25L805,671.75C805,679.063 799.063,685 791.75,685L765.25,685C757.937,685 752,679.063 752,671.75L752,645.25C752,637.937 757.937,632 765.25,632L791.75,632C799.063,632 805,637.937 805,645.25Z" style="fill:rgb(232,136,68);"/>
                </g>
            </g>
        </g>
    </g>
</svg>
