<?xml version="1.0" encoding="UTF-8" standalone="no"?>
<!DOCTYPE svg PUBLIC "-//W3C//DTD SVG 1.1//EN" "http://www.w3.org/Graphics/SVG/1.1/DTD/svg11.dtd">
<svg width="100%" height="100%" viewBox="0 0 705 247" version="1.1" xmlns="http://www.w3.org/2000/svg" xmlns:xlink="http://www.w3.org/1999/xlink" xml:space="preserve" xmlns:serif="http://www.serif.com/" style="fill-rule:evenodd;clip-rule:evenodd;stroke-linejoin:round;stroke-miterlimit:2;">
    <g transform="matrix(1,0,0,1,-95,-326)">
        <g transform="matrix(0.349228,0,0,0.349228,27.3636,224.016)">
            <g transform="matrix(632.409,0,0,632.409,275,892)">
                <path d="M0.623,-0.001C0.623,0.004 0.623,0.007 0.622,0.009C0.621,0.01 0.62,0.011 0.618,0.011C0.614,0.011 0.608,0.008 0.598,0.003C0.588,-0.002 0.577,-0.008 0.565,-0.015C0.552,-0.022 0.54,-0.028 0.529,-0.033C0.518,-0.039 0.508,-0.041 0.502,-0.041C0.498,-0.041 0.493,-0.039 0.485,-0.033C0.478,-0.028 0.468,-0.022 0.455,-0.016C0.443,-0.009 0.428,-0.003 0.411,0.002C0.394,0.007 0.374,0.01 0.351,0.01C0.303,0.01 0.259,0.002 0.22,-0.015C0.18,-0.032 0.146,-0.056 0.118,-0.086C0.089,-0.117 0.067,-0.153 0.051,-0.195C0.036,-0.237 0.028,-0.283 0.028,-0.334C0.028,-0.39 0.036,-0.441 0.053,-0.487C0.07,-0.534 0.094,-0.573 0.125,-0.606C0.156,-0.64 0.193,-0.665 0.236,-0.683C0.278,-0.701 0.326,-0.71 0.378,-0.71C0.406,-0.71 0.429,-0.706 0.448,-0.699C0.467,-0.692 0.482,-0.684 0.493,-0.677C0.503,-0.669 0.51,-0.666 0.513,-0.666C0.519,-0.666 0.527,-0.669 0.537,-0.677C0.547,-0.684 0.557,-0.691 0.567,-0.699C0.576,-0.706 0.583,-0.71 0.587,-0.71C0.588,-0.71 0.589,-0.709 0.59,-0.708C0.59,-0.707 0.591,-0.705 0.592,-0.701L0.628,-0.486C0.629,-0.484 0.629,-0.482 0.629,-0.481C0.628,-0.48 0.628,-0.479 0.627,-0.479C0.626,-0.478 0.626,-0.478 0.625,-0.479C0.624,-0.479 0.623,-0.48 0.621,-0.482C0.601,-0.535 0.578,-0.577 0.552,-0.609C0.527,-0.641 0.5,-0.665 0.471,-0.68C0.442,-0.694 0.412,-0.702 0.38,-0.702C0.339,-0.702 0.303,-0.689 0.272,-0.663C0.241,-0.638 0.217,-0.6 0.199,-0.549C0.181,-0.499 0.172,-0.436 0.172,-0.36C0.172,-0.286 0.182,-0.224 0.202,-0.171C0.221,-0.119 0.247,-0.079 0.28,-0.051C0.313,-0.024 0.348,-0.01 0.388,-0.01C0.398,-0.01 0.41,-0.011 0.422,-0.015C0.435,-0.018 0.447,-0.023 0.458,-0.029C0.468,-0.036 0.477,-0.044 0.484,-0.053C0.491,-0.062 0.495,-0.071 0.495,-0.082L0.495,-0.277C0.495,-0.281 0.493,-0.284 0.49,-0.286C0.487,-0.289 0.482,-0.29 0.476,-0.291L0.417,-0.297C0.415,-0.297 0.413,-0.298 0.412,-0.299C0.412,-0.299 0.411,-0.3 0.411,-0.301C0.411,-0.302 0.412,-0.302 0.412,-0.303C0.413,-0.304 0.414,-0.304 0.416,-0.304L0.668,-0.304C0.669,-0.304 0.671,-0.304 0.671,-0.303C0.672,-0.302 0.673,-0.302 0.673,-0.301C0.673,-0.3 0.672,-0.299 0.671,-0.299C0.67,-0.298 0.669,-0.298 0.667,-0.297L0.636,-0.291C0.632,-0.29 0.628,-0.288 0.626,-0.286C0.624,-0.284 0.623,-0.281 0.623,-0.277L0.623,-0.001Z" style="fill:rgb(23,54,92);fill-rule:nonzero;"/>
            </g>
            <g transform="matrix(632.409,0,0,632.409,697.133,892)">
                <path d="M0.176,-0.25C0.176,-0.293 0.182,-0.33 0.195,-0.36C0.208,-0.389 0.224,-0.411 0.244,-0.426C0.264,-0.441 0.284,-0.449 0.306,-0.449C0.331,-0.449 0.35,-0.441 0.363,-0.426C0.376,-0.41 0.383,-0.388 0.383,-0.359C0.383,-0.335 0.377,-0.316 0.366,-0.304C0.354,-0.292 0.339,-0.286 0.322,-0.286C0.306,-0.286 0.294,-0.29 0.286,-0.299C0.278,-0.308 0.274,-0.322 0.273,-0.34L0.272,-0.355C0.272,-0.366 0.27,-0.373 0.266,-0.379C0.262,-0.384 0.255,-0.387 0.245,-0.387C0.235,-0.387 0.224,-0.382 0.215,-0.371C0.205,-0.361 0.197,-0.346 0.191,-0.325C0.185,-0.304 0.182,-0.278 0.182,-0.247L0.176,-0.25ZM0.182,-0.439L0.182,-0.031C0.182,-0.027 0.183,-0.023 0.185,-0.021C0.187,-0.018 0.191,-0.016 0.195,-0.015L0.244,-0.007C0.246,-0.006 0.247,-0.006 0.248,-0.006C0.248,-0.005 0.249,-0.004 0.249,-0.003C0.249,-0.002 0.248,-0.001 0.247,-0.001C0.247,-0 0.245,-0 0.244,-0L0.022,-0C0.021,-0 0.02,-0 0.019,-0.001C0.018,-0.002 0.017,-0.003 0.017,-0.003C0.017,-0.004 0.018,-0.005 0.019,-0.006C0.02,-0.007 0.022,-0.007 0.024,-0.008L0.051,-0.012C0.055,-0.013 0.058,-0.014 0.06,-0.017C0.062,-0.019 0.063,-0.022 0.063,-0.025L0.063,-0.394C0.063,-0.396 0.062,-0.398 0.061,-0.4C0.06,-0.401 0.059,-0.402 0.056,-0.402L0.022,-0.402C0.021,-0.402 0.02,-0.402 0.02,-0.403C0.019,-0.404 0.018,-0.404 0.018,-0.405C0.018,-0.406 0.019,-0.407 0.02,-0.408C0.02,-0.408 0.022,-0.409 0.023,-0.409L0.167,-0.443C0.169,-0.444 0.171,-0.444 0.173,-0.445C0.174,-0.445 0.175,-0.445 0.177,-0.445C0.179,-0.445 0.18,-0.444 0.181,-0.443C0.182,-0.442 0.182,-0.44 0.182,-0.439Z" style="fill:rgb(23,54,92);fill-rule:nonzero;"/>
            </g>
            <g transform="matrix(632.409,0,0,632.409,928.278,892)">
                <path d="M0.183,-0.442L0.183,-0.028C0.183,-0.023 0.184,-0.02 0.186,-0.017C0.188,-0.014 0.191,-0.013 0.195,-0.012L0.223,-0.007C0.225,-0.007 0.226,-0.006 0.227,-0.006C0.228,-0.005 0.228,-0.004 0.228,-0.003C0.228,-0.002 0.228,-0.001 0.227,-0.001C0.226,-0 0.225,-0 0.224,-0L0.022,-0C0.021,-0 0.021,-0 0.02,-0.001C0.019,-0.001 0.019,-0.002 0.019,-0.003C0.019,-0.004 0.019,-0.005 0.02,-0.005C0.02,-0.006 0.022,-0.006 0.023,-0.007L0.052,-0.012C0.056,-0.013 0.059,-0.014 0.061,-0.017C0.063,-0.02 0.064,-0.023 0.064,-0.027L0.064,-0.392C0.064,-0.394 0.064,-0.396 0.063,-0.397C0.062,-0.398 0.06,-0.399 0.057,-0.399L0.025,-0.399C0.023,-0.399 0.022,-0.399 0.021,-0.4C0.021,-0.401 0.02,-0.401 0.02,-0.402C0.02,-0.404 0.021,-0.404 0.022,-0.405C0.022,-0.405 0.023,-0.406 0.025,-0.406L0.168,-0.446C0.171,-0.447 0.173,-0.447 0.174,-0.448C0.175,-0.448 0.177,-0.448 0.178,-0.448C0.18,-0.448 0.181,-0.447 0.182,-0.446C0.183,-0.445 0.183,-0.444 0.183,-0.442ZM0.121,-0.511C0.1,-0.511 0.083,-0.518 0.07,-0.532C0.057,-0.546 0.05,-0.563 0.05,-0.583C0.05,-0.603 0.057,-0.62 0.07,-0.634C0.084,-0.648 0.101,-0.655 0.121,-0.655C0.142,-0.655 0.16,-0.648 0.173,-0.634C0.187,-0.62 0.194,-0.603 0.194,-0.583C0.194,-0.563 0.187,-0.546 0.173,-0.532C0.16,-0.518 0.142,-0.511 0.121,-0.511Z" style="fill:rgb(23,54,92);fill-rule:nonzero;"/>
            </g>
            <g transform="matrix(632.409,0,0,632.409,1064.56,892)">
                <path d="M0.34,-0.015L0.34,-0.687C0.339,-0.689 0.339,-0.69 0.338,-0.691C0.337,-0.692 0.335,-0.693 0.333,-0.693L0.3,-0.693C0.299,-0.693 0.298,-0.693 0.297,-0.694C0.296,-0.695 0.296,-0.696 0.296,-0.697C0.296,-0.698 0.296,-0.699 0.297,-0.699C0.298,-0.7 0.299,-0.7 0.3,-0.7L0.443,-0.74C0.446,-0.741 0.449,-0.742 0.45,-0.742C0.451,-0.742 0.452,-0.742 0.454,-0.742C0.455,-0.742 0.457,-0.742 0.458,-0.741C0.458,-0.739 0.459,-0.738 0.459,-0.736L0.459,-0.028C0.459,-0.023 0.46,-0.02 0.462,-0.017C0.464,-0.014 0.467,-0.013 0.471,-0.012L0.498,-0.007C0.5,-0.007 0.502,-0.006 0.502,-0.006C0.503,-0.005 0.504,-0.004 0.504,-0.003C0.504,-0.002 0.503,-0.001 0.502,-0.001C0.502,-0 0.501,-0 0.499,-0L0.353,-0C0.348,-0 0.345,-0.001 0.343,-0.004C0.341,-0.006 0.339,-0.01 0.34,-0.015ZM0.023,-0.207C0.023,-0.257 0.032,-0.299 0.05,-0.336C0.069,-0.372 0.094,-0.4 0.126,-0.419C0.157,-0.439 0.192,-0.449 0.231,-0.449C0.264,-0.449 0.29,-0.442 0.312,-0.43C0.333,-0.417 0.35,-0.399 0.363,-0.377L0.353,-0.372C0.344,-0.391 0.332,-0.406 0.316,-0.417C0.3,-0.428 0.281,-0.433 0.259,-0.433C0.237,-0.433 0.218,-0.426 0.2,-0.412C0.183,-0.398 0.169,-0.375 0.159,-0.344C0.149,-0.312 0.144,-0.27 0.144,-0.218C0.144,-0.171 0.148,-0.133 0.157,-0.103C0.166,-0.074 0.178,-0.052 0.193,-0.038C0.209,-0.023 0.226,-0.016 0.247,-0.016C0.263,-0.016 0.28,-0.021 0.298,-0.03C0.315,-0.04 0.331,-0.055 0.347,-0.076L0.353,-0.07C0.329,-0.041 0.306,-0.02 0.283,-0.008C0.26,0.004 0.235,0.01 0.207,0.01C0.171,0.01 0.139,0.001 0.111,-0.016C0.083,-0.034 0.062,-0.059 0.046,-0.091C0.03,-0.123 0.023,-0.162 0.023,-0.207Z" style="fill:rgb(23,54,92);fill-rule:nonzero;"/>
            </g>
            <g transform="matrix(632.409,0,0,632.409,1370.65,892)">
                <path d="M0.34,-0.015L0.34,-0.687C0.339,-0.689 0.339,-0.69 0.338,-0.691C0.337,-0.692 0.335,-0.693 0.333,-0.693L0.3,-0.693C0.299,-0.693 0.298,-0.693 0.297,-0.694C0.296,-0.695 0.296,-0.696 0.296,-0.697C0.296,-0.698 0.296,-0.699 0.297,-0.699C0.298,-0.7 0.299,-0.7 0.3,-0.7L0.443,-0.74C0.446,-0.741 0.449,-0.742 0.45,-0.742C0.451,-0.742 0.452,-0.742 0.454,-0.742C0.455,-0.742 0.457,-0.742 0.458,-0.741C0.458,-0.739 0.459,-0.738 0.459,-0.736L0.459,-0.028C0.459,-0.023 0.46,-0.02 0.462,-0.017C0.464,-0.014 0.467,-0.013 0.471,-0.012L0.498,-0.007C0.5,-0.007 0.502,-0.006 0.502,-0.006C0.503,-0.005 0.504,-0.004 0.504,-0.003C0.504,-0.002 0.503,-0.001 0.502,-0.001C0.502,-0 0.501,-0 0.499,-0L0.353,-0C0.348,-0 0.345,-0.001 0.343,-0.004C0.341,-0.006 0.339,-0.01 0.34,-0.015ZM0.023,-0.207C0.023,-0.257 0.032,-0.299 0.05,-0.336C0.069,-0.372 0.094,-0.4 0.126,-0.419C0.157,-0.439 0.192,-0.449 0.231,-0.449C0.264,-0.449 0.29,-0.442 0.312,-0.43C0.333,-0.417 0.35,-0.399 0.363,-0.377L0.353,-0.372C0.344,-0.391 0.332,-0.406 0.316,-0.417C0.3,-0.428 0.281,-0.433 0.259,-0.433C0.237,-0.433 0.218,-0.426 0.2,-0.412C0.183,-0.398 0.169,-0.375 0.159,-0.344C0.149,-0.312 0.144,-0.27 0.144,-0.218C0.144,-0.171 0.148,-0.133 0.157,-0.103C0.166,-0.074 0.178,-0.052 0.193,-0.038C0.209,-0.023 0.226,-0.016 0.247,-0.016C0.263,-0.016 0.28,-0.021 0.298,-0.03C0.315,-0.04 0.331,-0.055 0.347,-0.076L0.353,-0.07C0.329,-0.041 0.306,-0.02 0.283,-0.008C0.26,0.004 0.235,0.01 0.207,0.01C0.171,0.01 0.139,0.001 0.111,-0.016C0.083,-0.034 0.062,-0.059 0.046,-0.091C0.03,-0.123 0.023,-0.162 0.023,-0.207Z" style="fill:rgb(23,54,92);fill-rule:nonzero;"/>
            </g>
            <g transform="matrix(632.409,0,0,632.409,1676.73,892)">
                <path d="M0.279,-0.046L0.279,-0.051L0.274,-0.046L0.274,-0.368C0.274,-0.392 0.269,-0.41 0.259,-0.423C0.249,-0.436 0.235,-0.442 0.216,-0.442C0.195,-0.442 0.18,-0.437 0.169,-0.427C0.159,-0.416 0.154,-0.404 0.154,-0.391L0.154,-0.351C0.154,-0.334 0.148,-0.32 0.136,-0.309C0.125,-0.297 0.11,-0.291 0.091,-0.291C0.078,-0.291 0.067,-0.295 0.059,-0.303C0.05,-0.311 0.046,-0.323 0.046,-0.339C0.046,-0.357 0.053,-0.374 0.067,-0.391C0.081,-0.408 0.102,-0.422 0.129,-0.433C0.157,-0.444 0.19,-0.449 0.231,-0.449C0.285,-0.449 0.326,-0.438 0.353,-0.415C0.38,-0.392 0.394,-0.359 0.394,-0.318L0.394,-0.058C0.394,-0.046 0.396,-0.038 0.4,-0.033C0.404,-0.028 0.409,-0.025 0.415,-0.025C0.421,-0.025 0.426,-0.027 0.431,-0.031C0.436,-0.034 0.439,-0.04 0.44,-0.049C0.44,-0.05 0.44,-0.051 0.441,-0.051C0.441,-0.052 0.442,-0.052 0.442,-0.052C0.443,-0.052 0.444,-0.052 0.444,-0.051C0.445,-0.051 0.445,-0.05 0.445,-0.049C0.445,-0.043 0.442,-0.035 0.436,-0.026C0.43,-0.017 0.421,-0.009 0.408,-0.002C0.395,0.005 0.378,0.009 0.356,0.009C0.329,0.009 0.31,0.004 0.298,-0.007C0.285,-0.017 0.279,-0.03 0.279,-0.046ZM0.021,-0.097C0.021,-0.133 0.036,-0.163 0.066,-0.185C0.096,-0.207 0.144,-0.218 0.209,-0.218C0.229,-0.218 0.246,-0.216 0.259,-0.212C0.272,-0.208 0.285,-0.203 0.296,-0.197L0.292,-0.193C0.281,-0.198 0.269,-0.203 0.257,-0.206C0.246,-0.209 0.232,-0.21 0.218,-0.21C0.193,-0.21 0.174,-0.202 0.16,-0.185C0.147,-0.169 0.14,-0.145 0.14,-0.115C0.14,-0.085 0.147,-0.063 0.16,-0.048C0.173,-0.032 0.189,-0.025 0.21,-0.025C0.224,-0.025 0.238,-0.028 0.251,-0.035C0.265,-0.041 0.276,-0.051 0.285,-0.063L0.29,-0.06C0.276,-0.037 0.256,-0.02 0.23,-0.009C0.205,0.003 0.177,0.009 0.148,0.009C0.11,0.009 0.08,-0.001 0.056,-0.021C0.033,-0.04 0.021,-0.066 0.021,-0.097Z" style="fill:rgb(23,54,92);fill-rule:nonzero;"/>
            </g>
        </g>
        <g transform="matrix(0.349228,0,0,0.349228,456.267,276.749)">
            <path d="M805,645.25L805,671.75C805,679.063 799.063,685 791.75,685L765.25,685C757.937,685 752,679.063 752,671.75L752,645.25C752,637.937 757.937,632 765.25,632L791.75,632C799.063,632 805,637.937 805,645.25Z" style="fill:rgb(232,136,68);"/>
        </g>
        <g transform="matrix(0.349228,0,0,0.349228,476.871,276.749)">
            <path d="M805,645.25L805,671.75C805,679.063 799.063,685 791.75,685L765.25,685C757.937,685 752,679.063 752,671.75L752,645.25C752,637.937 757.937,632 765.25,632L791.75,632C799.063,632 805,637.937 805,645.25Z" style="fill:rgb(243,185,138);"/>
        </g>
        <g transform="matrix(0.349228,0,0,0.349228,456.267,297.353)">
            <path d="M805,645.25L805,671.75C805,679.063 799.063,685 791.75,685L765.25,685C757.937,685 752,679.063 752,671.75L752,645.25C752,637.937 757.937,632 765.25,632L791.75,632C799.063,632 805,637.937 805,645.25Z" style="fill:rgb(232,136,68);"/>
        </g>
        <g transform="matrix(0.349228,0,0,0.349228,476.871,297.353)">
            <path d="M805,645.25L805,671.75C805,679.063 799.063,685 791.75,685L765.25,685C757.937,685 752,679.063 752,671.75L752,645.25C752,637.937 757.937,632 765.25,632L791.75,632C799.063,632 805,637.937 805,645.25Z" style="fill:rgb(232,136,68);"/>
        </g>
    </g>
</svg>
